<?xml version="1.0" encoding="utf-8" standalone="no"?>
<!DOCTYPE svg PUBLIC "-//W3C//DTD SVG 1.1//EN"
  "http://www.w3.org/Graphics/SVG/1.1/DTD/svg11.dtd">
<svg xmlns:xlink="http://www.w3.org/1999/xlink" width="460.8pt" height="345.6pt" viewBox="0 0 460.8 345.6" xmlns="http://www.w3.org/2000/svg" version="1.1">
 <metadata>
  <rdf:RDF xmlns:dc="http://purl.org/dc/elements/1.1/" xmlns:cc="http://creativecommons.org/ns#" xmlns:rdf="http://www.w3.org/1999/02/22-rdf-syntax-ns#">
   <cc:Work>
    <dc:type rdf:resource="http://purl.org/dc/dcmitype/StillImage"/>
    <dc:date>2024-06-25T21:14:36.240232</dc:date>
    <dc:format>image/svg+xml</dc:format>
    <dc:creator>
     <cc:Agent>
      <dc:title>Matplotlib v3.8.4, https://matplotlib.org/</dc:title>
     </cc:Agent>
    </dc:creator>
   </cc:Work>
  </rdf:RDF>
 </metadata>
 <defs>
  <style type="text/css">*{stroke-linejoin: round; stroke-linecap: butt}</style>
 </defs>
 <g id="figure_1">
  <g id="patch_1">
   <path d="M 0 345.6 
L 460.8 345.6 
L 460.8 0 
L 0 0 
z
" style="fill: #363a4f"/>
  </g>
  <g id="axes_1">
   <g id="patch_2">
    <path d="M 57.6 307.584 
L 414.72 307.584 
L 414.72 41.472 
L 57.6 41.472 
z
" style="fill: #363a4f"/>
   </g>
   <g id="matplotlib.axis_1">
    <g id="xtick_1">
     <g id="line2d_1">
      <path d="M 57.6 307.584 
L 57.6 41.472 
" clip-path="url(#p21efcb5517)" style="fill: none; stroke: #414559; stroke-width: 0.8; stroke-linecap: square"/>
     </g>
     <g id="line2d_2">
      <defs>
       <path id="m8aa446ad74" d="M 0 0 
L 0 3.5 
" style="stroke: #c6d0f5; stroke-width: 3"/>
      </defs>
      <g>
       <use xlink:href="#m8aa446ad74" x="57.6" y="307.584" style="fill: #c6d0f5; stroke: #c6d0f5; stroke-width: 3"/>
      </g>
     </g>
     <g id="text_1">
      <!-- 0.0 -->
      <g style="fill: #c6d0f5" transform="translate(49.648438 322.182437) scale(0.1 -0.1)">
       <defs>
        <path id="DejaVuSans-30" d="M 2034 4250 
Q 1547 4250 1301 3770 
Q 1056 3291 1056 2328 
Q 1056 1369 1301 889 
Q 1547 409 2034 409 
Q 2525 409 2770 889 
Q 3016 1369 3016 2328 
Q 3016 3291 2770 3770 
Q 2525 4250 2034 4250 
z
M 2034 4750 
Q 2819 4750 3233 4129 
Q 3647 3509 3647 2328 
Q 3647 1150 3233 529 
Q 2819 -91 2034 -91 
Q 1250 -91 836 529 
Q 422 1150 422 2328 
Q 422 3509 836 4129 
Q 1250 4750 2034 4750 
z
" transform="scale(0.015625)"/>
        <path id="DejaVuSans-2e" d="M 684 794 
L 1344 794 
L 1344 0 
L 684 0 
L 684 794 
z
" transform="scale(0.015625)"/>
       </defs>
       <use xlink:href="#DejaVuSans-30"/>
       <use xlink:href="#DejaVuSans-2e" x="63.623047"/>
       <use xlink:href="#DejaVuSans-30" x="95.410156"/>
      </g>
     </g>
    </g>
    <g id="xtick_2">
     <g id="line2d_3">
      <path d="M 129.024 307.584 
L 129.024 41.472 
" clip-path="url(#p21efcb5517)" style="fill: none; stroke: #414559; stroke-width: 0.8; stroke-linecap: square"/>
     </g>
     <g id="line2d_4">
      <g>
       <use xlink:href="#m8aa446ad74" x="129.024" y="307.584" style="fill: #c6d0f5; stroke: #c6d0f5; stroke-width: 3"/>
      </g>
     </g>
     <g id="text_2">
      <!-- 0.2 -->
      <g style="fill: #c6d0f5" transform="translate(121.072438 322.182437) scale(0.1 -0.1)">
       <defs>
        <path id="DejaVuSans-32" d="M 1228 531 
L 3431 531 
L 3431 0 
L 469 0 
L 469 531 
Q 828 903 1448 1529 
Q 2069 2156 2228 2338 
Q 2531 2678 2651 2914 
Q 2772 3150 2772 3378 
Q 2772 3750 2511 3984 
Q 2250 4219 1831 4219 
Q 1534 4219 1204 4116 
Q 875 4013 500 3803 
L 500 4441 
Q 881 4594 1212 4672 
Q 1544 4750 1819 4750 
Q 2544 4750 2975 4387 
Q 3406 4025 3406 3419 
Q 3406 3131 3298 2873 
Q 3191 2616 2906 2266 
Q 2828 2175 2409 1742 
Q 1991 1309 1228 531 
z
" transform="scale(0.015625)"/>
       </defs>
       <use xlink:href="#DejaVuSans-30"/>
       <use xlink:href="#DejaVuSans-2e" x="63.623047"/>
       <use xlink:href="#DejaVuSans-32" x="95.410156"/>
      </g>
     </g>
    </g>
    <g id="xtick_3">
     <g id="line2d_5">
      <path d="M 200.448 307.584 
L 200.448 41.472 
" clip-path="url(#p21efcb5517)" style="fill: none; stroke: #414559; stroke-width: 0.8; stroke-linecap: square"/>
     </g>
     <g id="line2d_6">
      <g>
       <use xlink:href="#m8aa446ad74" x="200.448" y="307.584" style="fill: #c6d0f5; stroke: #c6d0f5; stroke-width: 3"/>
      </g>
     </g>
     <g id="text_3">
      <!-- 0.4 -->
      <g style="fill: #c6d0f5" transform="translate(192.496438 322.182437) scale(0.1 -0.1)">
       <defs>
        <path id="DejaVuSans-34" d="M 2419 4116 
L 825 1625 
L 2419 1625 
L 2419 4116 
z
M 2253 4666 
L 3047 4666 
L 3047 1625 
L 3713 1625 
L 3713 1100 
L 3047 1100 
L 3047 0 
L 2419 0 
L 2419 1100 
L 313 1100 
L 313 1709 
L 2253 4666 
z
" transform="scale(0.015625)"/>
       </defs>
       <use xlink:href="#DejaVuSans-30"/>
       <use xlink:href="#DejaVuSans-2e" x="63.623047"/>
       <use xlink:href="#DejaVuSans-34" x="95.410156"/>
      </g>
     </g>
    </g>
    <g id="xtick_4">
     <g id="line2d_7">
      <path d="M 271.872 307.584 
L 271.872 41.472 
" clip-path="url(#p21efcb5517)" style="fill: none; stroke: #414559; stroke-width: 0.8; stroke-linecap: square"/>
     </g>
     <g id="line2d_8">
      <g>
       <use xlink:href="#m8aa446ad74" x="271.872" y="307.584" style="fill: #c6d0f5; stroke: #c6d0f5; stroke-width: 3"/>
      </g>
     </g>
     <g id="text_4">
      <!-- 0.6 -->
      <g style="fill: #c6d0f5" transform="translate(263.920438 322.182437) scale(0.1 -0.1)">
       <defs>
        <path id="DejaVuSans-36" d="M 2113 2584 
Q 1688 2584 1439 2293 
Q 1191 2003 1191 1497 
Q 1191 994 1439 701 
Q 1688 409 2113 409 
Q 2538 409 2786 701 
Q 3034 994 3034 1497 
Q 3034 2003 2786 2293 
Q 2538 2584 2113 2584 
z
M 3366 4563 
L 3366 3988 
Q 3128 4100 2886 4159 
Q 2644 4219 2406 4219 
Q 1781 4219 1451 3797 
Q 1122 3375 1075 2522 
Q 1259 2794 1537 2939 
Q 1816 3084 2150 3084 
Q 2853 3084 3261 2657 
Q 3669 2231 3669 1497 
Q 3669 778 3244 343 
Q 2819 -91 2113 -91 
Q 1303 -91 875 529 
Q 447 1150 447 2328 
Q 447 3434 972 4092 
Q 1497 4750 2381 4750 
Q 2619 4750 2861 4703 
Q 3103 4656 3366 4563 
z
" transform="scale(0.015625)"/>
       </defs>
       <use xlink:href="#DejaVuSans-30"/>
       <use xlink:href="#DejaVuSans-2e" x="63.623047"/>
       <use xlink:href="#DejaVuSans-36" x="95.410156"/>
      </g>
     </g>
    </g>
    <g id="xtick_5">
     <g id="line2d_9">
      <path d="M 343.296 307.584 
L 343.296 41.472 
" clip-path="url(#p21efcb5517)" style="fill: none; stroke: #414559; stroke-width: 0.8; stroke-linecap: square"/>
     </g>
     <g id="line2d_10">
      <g>
       <use xlink:href="#m8aa446ad74" x="343.296" y="307.584" style="fill: #c6d0f5; stroke: #c6d0f5; stroke-width: 3"/>
      </g>
     </g>
     <g id="text_5">
      <!-- 0.8 -->
      <g style="fill: #c6d0f5" transform="translate(335.344438 322.182437) scale(0.1 -0.1)">
       <defs>
        <path id="DejaVuSans-38" d="M 2034 2216 
Q 1584 2216 1326 1975 
Q 1069 1734 1069 1313 
Q 1069 891 1326 650 
Q 1584 409 2034 409 
Q 2484 409 2743 651 
Q 3003 894 3003 1313 
Q 3003 1734 2745 1975 
Q 2488 2216 2034 2216 
z
M 1403 2484 
Q 997 2584 770 2862 
Q 544 3141 544 3541 
Q 544 4100 942 4425 
Q 1341 4750 2034 4750 
Q 2731 4750 3128 4425 
Q 3525 4100 3525 3541 
Q 3525 3141 3298 2862 
Q 3072 2584 2669 2484 
Q 3125 2378 3379 2068 
Q 3634 1759 3634 1313 
Q 3634 634 3220 271 
Q 2806 -91 2034 -91 
Q 1263 -91 848 271 
Q 434 634 434 1313 
Q 434 1759 690 2068 
Q 947 2378 1403 2484 
z
M 1172 3481 
Q 1172 3119 1398 2916 
Q 1625 2713 2034 2713 
Q 2441 2713 2670 2916 
Q 2900 3119 2900 3481 
Q 2900 3844 2670 4047 
Q 2441 4250 2034 4250 
Q 1625 4250 1398 4047 
Q 1172 3844 1172 3481 
z
" transform="scale(0.015625)"/>
       </defs>
       <use xlink:href="#DejaVuSans-30"/>
       <use xlink:href="#DejaVuSans-2e" x="63.623047"/>
       <use xlink:href="#DejaVuSans-38" x="95.410156"/>
      </g>
     </g>
    </g>
    <g id="xtick_6">
     <g id="line2d_11">
      <path d="M 414.72 307.584 
L 414.72 41.472 
" clip-path="url(#p21efcb5517)" style="fill: none; stroke: #414559; stroke-width: 0.8; stroke-linecap: square"/>
     </g>
     <g id="line2d_12">
      <g>
       <use xlink:href="#m8aa446ad74" x="414.72" y="307.584" style="fill: #c6d0f5; stroke: #c6d0f5; stroke-width: 3"/>
      </g>
     </g>
     <g id="text_6">
      <!-- 1.0 -->
      <g style="fill: #c6d0f5" transform="translate(406.768438 322.182437) scale(0.1 -0.1)">
       <defs>
        <path id="DejaVuSans-31" d="M 794 531 
L 1825 531 
L 1825 4091 
L 703 3866 
L 703 4441 
L 1819 4666 
L 2450 4666 
L 2450 531 
L 3481 531 
L 3481 0 
L 794 0 
L 794 531 
z
" transform="scale(0.015625)"/>
       </defs>
       <use xlink:href="#DejaVuSans-31"/>
       <use xlink:href="#DejaVuSans-2e" x="63.623047"/>
       <use xlink:href="#DejaVuSans-30" x="95.410156"/>
      </g>
     </g>
    </g>
    <g id="text_7">
     <!-- Slip ($s$) [-] -->
     <g style="fill: #c6d0f5" transform="translate(211.61 335.862125) scale(0.1 -0.1)">
      <defs>
       <path id="DejaVuSans-53" d="M 3425 4513 
L 3425 3897 
Q 3066 4069 2747 4153 
Q 2428 4238 2131 4238 
Q 1616 4238 1336 4038 
Q 1056 3838 1056 3469 
Q 1056 3159 1242 3001 
Q 1428 2844 1947 2747 
L 2328 2669 
Q 3034 2534 3370 2195 
Q 3706 1856 3706 1288 
Q 3706 609 3251 259 
Q 2797 -91 1919 -91 
Q 1588 -91 1214 -16 
Q 841 59 441 206 
L 441 856 
Q 825 641 1194 531 
Q 1563 422 1919 422 
Q 2459 422 2753 634 
Q 3047 847 3047 1241 
Q 3047 1584 2836 1778 
Q 2625 1972 2144 2069 
L 1759 2144 
Q 1053 2284 737 2584 
Q 422 2884 422 3419 
Q 422 4038 858 4394 
Q 1294 4750 2059 4750 
Q 2388 4750 2728 4690 
Q 3069 4631 3425 4513 
z
" transform="scale(0.015625)"/>
       <path id="DejaVuSans-6c" d="M 603 4863 
L 1178 4863 
L 1178 0 
L 603 0 
L 603 4863 
z
" transform="scale(0.015625)"/>
       <path id="DejaVuSans-69" d="M 603 3500 
L 1178 3500 
L 1178 0 
L 603 0 
L 603 3500 
z
M 603 4863 
L 1178 4863 
L 1178 4134 
L 603 4134 
L 603 4863 
z
" transform="scale(0.015625)"/>
       <path id="DejaVuSans-70" d="M 1159 525 
L 1159 -1331 
L 581 -1331 
L 581 3500 
L 1159 3500 
L 1159 2969 
Q 1341 3281 1617 3432 
Q 1894 3584 2278 3584 
Q 2916 3584 3314 3078 
Q 3713 2572 3713 1747 
Q 3713 922 3314 415 
Q 2916 -91 2278 -91 
Q 1894 -91 1617 61 
Q 1341 213 1159 525 
z
M 3116 1747 
Q 3116 2381 2855 2742 
Q 2594 3103 2138 3103 
Q 1681 3103 1420 2742 
Q 1159 2381 1159 1747 
Q 1159 1113 1420 752 
Q 1681 391 2138 391 
Q 2594 391 2855 752 
Q 3116 1113 3116 1747 
z
" transform="scale(0.015625)"/>
       <path id="DejaVuSans-20" transform="scale(0.015625)"/>
       <path id="DejaVuSans-28" d="M 1984 4856 
Q 1566 4138 1362 3434 
Q 1159 2731 1159 2009 
Q 1159 1288 1364 580 
Q 1569 -128 1984 -844 
L 1484 -844 
Q 1016 -109 783 600 
Q 550 1309 550 2009 
Q 550 2706 781 3412 
Q 1013 4119 1484 4856 
L 1984 4856 
z
" transform="scale(0.015625)"/>
       <path id="DejaVuSans-Oblique-73" d="M 3200 3397 
L 3091 2853 
Q 2863 2978 2609 3040 
Q 2356 3103 2088 3103 
Q 1634 3103 1373 2948 
Q 1113 2794 1113 2528 
Q 1113 2219 1719 2053 
Q 1766 2041 1788 2034 
L 1972 1978 
Q 2547 1819 2739 1644 
Q 2931 1469 2931 1166 
Q 2931 609 2489 259 
Q 2047 -91 1331 -91 
Q 1053 -91 747 -37 
Q 441 16 72 128 
L 184 722 
Q 500 559 806 475 
Q 1113 391 1394 391 
Q 1816 391 2080 572 
Q 2344 753 2344 1031 
Q 2344 1331 1650 1516 
L 1591 1531 
L 1394 1581 
Q 956 1697 753 1886 
Q 550 2075 550 2369 
Q 550 2928 970 3256 
Q 1391 3584 2113 3584 
Q 2397 3584 2667 3537 
Q 2938 3491 3200 3397 
z
" transform="scale(0.015625)"/>
       <path id="DejaVuSans-29" d="M 513 4856 
L 1013 4856 
Q 1481 4119 1714 3412 
Q 1947 2706 1947 2009 
Q 1947 1309 1714 600 
Q 1481 -109 1013 -844 
L 513 -844 
Q 928 -128 1133 580 
Q 1338 1288 1338 2009 
Q 1338 2731 1133 3434 
Q 928 4138 513 4856 
z
" transform="scale(0.015625)"/>
       <path id="DejaVuSans-5b" d="M 550 4863 
L 1875 4863 
L 1875 4416 
L 1125 4416 
L 1125 -397 
L 1875 -397 
L 1875 -844 
L 550 -844 
L 550 4863 
z
" transform="scale(0.015625)"/>
       <path id="DejaVuSans-2d" d="M 313 2009 
L 1997 2009 
L 1997 1497 
L 313 1497 
L 313 2009 
z
" transform="scale(0.015625)"/>
       <path id="DejaVuSans-5d" d="M 1947 4863 
L 1947 -844 
L 622 -844 
L 622 -397 
L 1369 -397 
L 1369 4416 
L 622 4416 
L 622 4863 
L 1947 4863 
z
" transform="scale(0.015625)"/>
      </defs>
      <use xlink:href="#DejaVuSans-53" transform="translate(0 0.015625)"/>
      <use xlink:href="#DejaVuSans-6c" transform="translate(63.476562 0.015625)"/>
      <use xlink:href="#DejaVuSans-69" transform="translate(91.259766 0.015625)"/>
      <use xlink:href="#DejaVuSans-70" transform="translate(119.042969 0.015625)"/>
      <use xlink:href="#DejaVuSans-20" transform="translate(182.519531 0.015625)"/>
      <use xlink:href="#DejaVuSans-28" transform="translate(214.306641 0.015625)"/>
      <use xlink:href="#DejaVuSans-Oblique-73" transform="translate(253.320312 0.015625)"/>
      <use xlink:href="#DejaVuSans-29" transform="translate(305.419922 0.015625)"/>
      <use xlink:href="#DejaVuSans-20" transform="translate(344.433594 0.015625)"/>
      <use xlink:href="#DejaVuSans-5b" transform="translate(376.220703 0.015625)"/>
      <use xlink:href="#DejaVuSans-2d" transform="translate(415.234375 0.015625)"/>
      <use xlink:href="#DejaVuSans-5d" transform="translate(451.318359 0.015625)"/>
     </g>
    </g>
   </g>
   <g id="matplotlib.axis_2">
    <g id="ytick_1">
     <g id="line2d_13">
      <path d="M 57.6 307.584 
L 414.72 307.584 
" clip-path="url(#p21efcb5517)" style="fill: none; stroke: #414559; stroke-width: 0.8; stroke-linecap: square"/>
     </g>
     <g id="line2d_14">
      <defs>
       <path id="mf78e21492d" d="M 0 0 
L -3.5 0 
" style="stroke: #c6d0f5; stroke-width: 3"/>
      </defs>
      <g>
       <use xlink:href="#mf78e21492d" x="57.6" y="307.584" style="fill: #c6d0f5; stroke: #c6d0f5; stroke-width: 3"/>
      </g>
     </g>
     <g id="text_8">
      <!-- 0 -->
      <g style="fill: #c6d0f5" transform="translate(44.2375 311.383219) scale(0.1 -0.1)">
       <use xlink:href="#DejaVuSans-30"/>
      </g>
     </g>
    </g>
    <g id="ytick_2">
     <g id="line2d_15">
      <path d="M 57.6 254.3616 
L 414.72 254.3616 
" clip-path="url(#p21efcb5517)" style="fill: none; stroke: #414559; stroke-width: 0.8; stroke-linecap: square"/>
     </g>
     <g id="line2d_16">
      <g>
       <use xlink:href="#mf78e21492d" x="57.6" y="254.3616" style="fill: #c6d0f5; stroke: #c6d0f5; stroke-width: 3"/>
      </g>
     </g>
     <g id="text_9">
      <!-- 20 -->
      <g style="fill: #c6d0f5" transform="translate(37.875 258.160819) scale(0.1 -0.1)">
       <use xlink:href="#DejaVuSans-32"/>
       <use xlink:href="#DejaVuSans-30" x="63.623047"/>
      </g>
     </g>
    </g>
    <g id="ytick_3">
     <g id="line2d_17">
      <path d="M 57.6 201.1392 
L 414.72 201.1392 
" clip-path="url(#p21efcb5517)" style="fill: none; stroke: #414559; stroke-width: 0.8; stroke-linecap: square"/>
     </g>
     <g id="line2d_18">
      <g>
       <use xlink:href="#mf78e21492d" x="57.6" y="201.1392" style="fill: #c6d0f5; stroke: #c6d0f5; stroke-width: 3"/>
      </g>
     </g>
     <g id="text_10">
      <!-- 40 -->
      <g style="fill: #c6d0f5" transform="translate(37.875 204.938419) scale(0.1 -0.1)">
       <use xlink:href="#DejaVuSans-34"/>
       <use xlink:href="#DejaVuSans-30" x="63.623047"/>
      </g>
     </g>
    </g>
    <g id="ytick_4">
     <g id="line2d_19">
      <path d="M 57.6 147.9168 
L 414.72 147.9168 
" clip-path="url(#p21efcb5517)" style="fill: none; stroke: #414559; stroke-width: 0.8; stroke-linecap: square"/>
     </g>
     <g id="line2d_20">
      <g>
       <use xlink:href="#mf78e21492d" x="57.6" y="147.9168" style="fill: #c6d0f5; stroke: #c6d0f5; stroke-width: 3"/>
      </g>
     </g>
     <g id="text_11">
      <!-- 60 -->
      <g style="fill: #c6d0f5" transform="translate(37.875 151.716019) scale(0.1 -0.1)">
       <use xlink:href="#DejaVuSans-36"/>
       <use xlink:href="#DejaVuSans-30" x="63.623047"/>
      </g>
     </g>
    </g>
    <g id="ytick_5">
     <g id="line2d_21">
      <path d="M 57.6 94.6944 
L 414.72 94.6944 
" clip-path="url(#p21efcb5517)" style="fill: none; stroke: #414559; stroke-width: 0.8; stroke-linecap: square"/>
     </g>
     <g id="line2d_22">
      <g>
       <use xlink:href="#mf78e21492d" x="57.6" y="94.6944" style="fill: #c6d0f5; stroke: #c6d0f5; stroke-width: 3"/>
      </g>
     </g>
     <g id="text_12">
      <!-- 80 -->
      <g style="fill: #c6d0f5" transform="translate(37.875 98.493619) scale(0.1 -0.1)">
       <use xlink:href="#DejaVuSans-38"/>
       <use xlink:href="#DejaVuSans-30" x="63.623047"/>
      </g>
     </g>
    </g>
    <g id="ytick_6">
     <g id="line2d_23">
      <path d="M 57.6 41.472 
L 414.72 41.472 
" clip-path="url(#p21efcb5517)" style="fill: none; stroke: #414559; stroke-width: 0.8; stroke-linecap: square"/>
     </g>
     <g id="line2d_24">
      <g>
       <use xlink:href="#mf78e21492d" x="57.6" y="41.472" style="fill: #c6d0f5; stroke: #c6d0f5; stroke-width: 3"/>
      </g>
     </g>
     <g id="text_13">
      <!-- 100 -->
      <g style="fill: #c6d0f5" transform="translate(31.5125 45.271219) scale(0.1 -0.1)">
       <use xlink:href="#DejaVuSans-31"/>
       <use xlink:href="#DejaVuSans-30" x="63.623047"/>
       <use xlink:href="#DejaVuSans-30" x="127.246094"/>
      </g>
     </g>
    </g>
    <g id="text_14">
     <!-- Electromagnetic Torque ($T_{mech}$) [N.m] -->
     <g style="fill: #c6d0f5" transform="translate(25.4125 268.378) rotate(-90) scale(0.1 -0.1)">
      <defs>
       <path id="DejaVuSans-45" d="M 628 4666 
L 3578 4666 
L 3578 4134 
L 1259 4134 
L 1259 2753 
L 3481 2753 
L 3481 2222 
L 1259 2222 
L 1259 531 
L 3634 531 
L 3634 0 
L 628 0 
L 628 4666 
z
" transform="scale(0.015625)"/>
       <path id="DejaVuSans-65" d="M 3597 1894 
L 3597 1613 
L 953 1613 
Q 991 1019 1311 708 
Q 1631 397 2203 397 
Q 2534 397 2845 478 
Q 3156 559 3463 722 
L 3463 178 
Q 3153 47 2828 -22 
Q 2503 -91 2169 -91 
Q 1331 -91 842 396 
Q 353 884 353 1716 
Q 353 2575 817 3079 
Q 1281 3584 2069 3584 
Q 2775 3584 3186 3129 
Q 3597 2675 3597 1894 
z
M 3022 2063 
Q 3016 2534 2758 2815 
Q 2500 3097 2075 3097 
Q 1594 3097 1305 2825 
Q 1016 2553 972 2059 
L 3022 2063 
z
" transform="scale(0.015625)"/>
       <path id="DejaVuSans-63" d="M 3122 3366 
L 3122 2828 
Q 2878 2963 2633 3030 
Q 2388 3097 2138 3097 
Q 1578 3097 1268 2742 
Q 959 2388 959 1747 
Q 959 1106 1268 751 
Q 1578 397 2138 397 
Q 2388 397 2633 464 
Q 2878 531 3122 666 
L 3122 134 
Q 2881 22 2623 -34 
Q 2366 -91 2075 -91 
Q 1284 -91 818 406 
Q 353 903 353 1747 
Q 353 2603 823 3093 
Q 1294 3584 2113 3584 
Q 2378 3584 2631 3529 
Q 2884 3475 3122 3366 
z
" transform="scale(0.015625)"/>
       <path id="DejaVuSans-74" d="M 1172 4494 
L 1172 3500 
L 2356 3500 
L 2356 3053 
L 1172 3053 
L 1172 1153 
Q 1172 725 1289 603 
Q 1406 481 1766 481 
L 2356 481 
L 2356 0 
L 1766 0 
Q 1100 0 847 248 
Q 594 497 594 1153 
L 594 3053 
L 172 3053 
L 172 3500 
L 594 3500 
L 594 4494 
L 1172 4494 
z
" transform="scale(0.015625)"/>
       <path id="DejaVuSans-72" d="M 2631 2963 
Q 2534 3019 2420 3045 
Q 2306 3072 2169 3072 
Q 1681 3072 1420 2755 
Q 1159 2438 1159 1844 
L 1159 0 
L 581 0 
L 581 3500 
L 1159 3500 
L 1159 2956 
Q 1341 3275 1631 3429 
Q 1922 3584 2338 3584 
Q 2397 3584 2469 3576 
Q 2541 3569 2628 3553 
L 2631 2963 
z
" transform="scale(0.015625)"/>
       <path id="DejaVuSans-6f" d="M 1959 3097 
Q 1497 3097 1228 2736 
Q 959 2375 959 1747 
Q 959 1119 1226 758 
Q 1494 397 1959 397 
Q 2419 397 2687 759 
Q 2956 1122 2956 1747 
Q 2956 2369 2687 2733 
Q 2419 3097 1959 3097 
z
M 1959 3584 
Q 2709 3584 3137 3096 
Q 3566 2609 3566 1747 
Q 3566 888 3137 398 
Q 2709 -91 1959 -91 
Q 1206 -91 779 398 
Q 353 888 353 1747 
Q 353 2609 779 3096 
Q 1206 3584 1959 3584 
z
" transform="scale(0.015625)"/>
       <path id="DejaVuSans-6d" d="M 3328 2828 
Q 3544 3216 3844 3400 
Q 4144 3584 4550 3584 
Q 5097 3584 5394 3201 
Q 5691 2819 5691 2113 
L 5691 0 
L 5113 0 
L 5113 2094 
Q 5113 2597 4934 2840 
Q 4756 3084 4391 3084 
Q 3944 3084 3684 2787 
Q 3425 2491 3425 1978 
L 3425 0 
L 2847 0 
L 2847 2094 
Q 2847 2600 2669 2842 
Q 2491 3084 2119 3084 
Q 1678 3084 1418 2786 
Q 1159 2488 1159 1978 
L 1159 0 
L 581 0 
L 581 3500 
L 1159 3500 
L 1159 2956 
Q 1356 3278 1631 3431 
Q 1906 3584 2284 3584 
Q 2666 3584 2933 3390 
Q 3200 3197 3328 2828 
z
" transform="scale(0.015625)"/>
       <path id="DejaVuSans-61" d="M 2194 1759 
Q 1497 1759 1228 1600 
Q 959 1441 959 1056 
Q 959 750 1161 570 
Q 1363 391 1709 391 
Q 2188 391 2477 730 
Q 2766 1069 2766 1631 
L 2766 1759 
L 2194 1759 
z
M 3341 1997 
L 3341 0 
L 2766 0 
L 2766 531 
Q 2569 213 2275 61 
Q 1981 -91 1556 -91 
Q 1019 -91 701 211 
Q 384 513 384 1019 
Q 384 1609 779 1909 
Q 1175 2209 1959 2209 
L 2766 2209 
L 2766 2266 
Q 2766 2663 2505 2880 
Q 2244 3097 1772 3097 
Q 1472 3097 1187 3025 
Q 903 2953 641 2809 
L 641 3341 
Q 956 3463 1253 3523 
Q 1550 3584 1831 3584 
Q 2591 3584 2966 3190 
Q 3341 2797 3341 1997 
z
" transform="scale(0.015625)"/>
       <path id="DejaVuSans-67" d="M 2906 1791 
Q 2906 2416 2648 2759 
Q 2391 3103 1925 3103 
Q 1463 3103 1205 2759 
Q 947 2416 947 1791 
Q 947 1169 1205 825 
Q 1463 481 1925 481 
Q 2391 481 2648 825 
Q 2906 1169 2906 1791 
z
M 3481 434 
Q 3481 -459 3084 -895 
Q 2688 -1331 1869 -1331 
Q 1566 -1331 1297 -1286 
Q 1028 -1241 775 -1147 
L 775 -588 
Q 1028 -725 1275 -790 
Q 1522 -856 1778 -856 
Q 2344 -856 2625 -561 
Q 2906 -266 2906 331 
L 2906 616 
Q 2728 306 2450 153 
Q 2172 0 1784 0 
Q 1141 0 747 490 
Q 353 981 353 1791 
Q 353 2603 747 3093 
Q 1141 3584 1784 3584 
Q 2172 3584 2450 3431 
Q 2728 3278 2906 2969 
L 2906 3500 
L 3481 3500 
L 3481 434 
z
" transform="scale(0.015625)"/>
       <path id="DejaVuSans-6e" d="M 3513 2113 
L 3513 0 
L 2938 0 
L 2938 2094 
Q 2938 2591 2744 2837 
Q 2550 3084 2163 3084 
Q 1697 3084 1428 2787 
Q 1159 2491 1159 1978 
L 1159 0 
L 581 0 
L 581 3500 
L 1159 3500 
L 1159 2956 
Q 1366 3272 1645 3428 
Q 1925 3584 2291 3584 
Q 2894 3584 3203 3211 
Q 3513 2838 3513 2113 
z
" transform="scale(0.015625)"/>
       <path id="DejaVuSans-54" d="M -19 4666 
L 3928 4666 
L 3928 4134 
L 2272 4134 
L 2272 0 
L 1638 0 
L 1638 4134 
L -19 4134 
L -19 4666 
z
" transform="scale(0.015625)"/>
       <path id="DejaVuSans-71" d="M 947 1747 
Q 947 1113 1208 752 
Q 1469 391 1925 391 
Q 2381 391 2643 752 
Q 2906 1113 2906 1747 
Q 2906 2381 2643 2742 
Q 2381 3103 1925 3103 
Q 1469 3103 1208 2742 
Q 947 2381 947 1747 
z
M 2906 525 
Q 2725 213 2448 61 
Q 2172 -91 1784 -91 
Q 1150 -91 751 415 
Q 353 922 353 1747 
Q 353 2572 751 3078 
Q 1150 3584 1784 3584 
Q 2172 3584 2448 3432 
Q 2725 3281 2906 2969 
L 2906 3500 
L 3481 3500 
L 3481 -1331 
L 2906 -1331 
L 2906 525 
z
" transform="scale(0.015625)"/>
       <path id="DejaVuSans-75" d="M 544 1381 
L 544 3500 
L 1119 3500 
L 1119 1403 
Q 1119 906 1312 657 
Q 1506 409 1894 409 
Q 2359 409 2629 706 
Q 2900 1003 2900 1516 
L 2900 3500 
L 3475 3500 
L 3475 0 
L 2900 0 
L 2900 538 
Q 2691 219 2414 64 
Q 2138 -91 1772 -91 
Q 1169 -91 856 284 
Q 544 659 544 1381 
z
M 1991 3584 
L 1991 3584 
z
" transform="scale(0.015625)"/>
       <path id="DejaVuSans-Oblique-54" d="M 378 4666 
L 4325 4666 
L 4225 4134 
L 2559 4134 
L 1759 0 
L 1125 0 
L 1925 4134 
L 275 4134 
L 378 4666 
z
" transform="scale(0.015625)"/>
       <path id="DejaVuSans-Oblique-6d" d="M 5747 2113 
L 5338 0 
L 4763 0 
L 5166 2094 
Q 5191 2228 5203 2325 
Q 5216 2422 5216 2491 
Q 5216 2772 5059 2928 
Q 4903 3084 4622 3084 
Q 4203 3084 3875 2770 
Q 3547 2456 3450 1953 
L 3066 0 
L 2491 0 
L 2900 2094 
Q 2925 2209 2937 2307 
Q 2950 2406 2950 2484 
Q 2950 2769 2794 2926 
Q 2638 3084 2363 3084 
Q 1938 3084 1609 2770 
Q 1281 2456 1184 1953 
L 800 0 
L 225 0 
L 909 3500 
L 1484 3500 
L 1375 2956 
Q 1609 3263 1923 3423 
Q 2238 3584 2597 3584 
Q 2978 3584 3223 3384 
Q 3469 3184 3519 2828 
Q 3781 3197 4126 3390 
Q 4472 3584 4856 3584 
Q 5306 3584 5551 3325 
Q 5797 3066 5797 2591 
Q 5797 2488 5784 2364 
Q 5772 2241 5747 2113 
z
" transform="scale(0.015625)"/>
       <path id="DejaVuSans-Oblique-65" d="M 3078 2063 
Q 3088 2113 3092 2166 
Q 3097 2219 3097 2272 
Q 3097 2653 2873 2875 
Q 2650 3097 2266 3097 
Q 1838 3097 1509 2826 
Q 1181 2556 1013 2059 
L 3078 2063 
z
M 3578 1613 
L 903 1613 
Q 884 1494 878 1425 
Q 872 1356 872 1306 
Q 872 872 1139 634 
Q 1406 397 1894 397 
Q 2269 397 2603 481 
Q 2938 566 3225 728 
L 3116 159 
Q 2806 34 2476 -28 
Q 2147 -91 1806 -91 
Q 1078 -91 686 257 
Q 294 606 294 1247 
Q 294 1794 489 2264 
Q 684 2734 1063 3103 
Q 1306 3334 1642 3459 
Q 1978 3584 2356 3584 
Q 2950 3584 3301 3228 
Q 3653 2872 3653 2272 
Q 3653 2128 3634 1964 
Q 3616 1800 3578 1613 
z
" transform="scale(0.015625)"/>
       <path id="DejaVuSans-Oblique-63" d="M 3431 3366 
L 3316 2797 
Q 3109 2947 2876 3022 
Q 2644 3097 2394 3097 
Q 2119 3097 1870 3000 
Q 1622 2903 1453 2725 
Q 1184 2453 1037 2087 
Q 891 1722 891 1331 
Q 891 859 1127 628 
Q 1363 397 1844 397 
Q 2081 397 2348 469 
Q 2616 541 2906 684 
L 2797 116 
Q 2547 13 2283 -39 
Q 2019 -91 1741 -91 
Q 1044 -91 669 257 
Q 294 606 294 1253 
Q 294 1797 489 2255 
Q 684 2713 1069 3078 
Q 1331 3328 1684 3456 
Q 2038 3584 2456 3584 
Q 2700 3584 2940 3529 
Q 3181 3475 3431 3366 
z
" transform="scale(0.015625)"/>
       <path id="DejaVuSans-Oblique-68" d="M 3566 2113 
L 3156 0 
L 2578 0 
L 2988 2091 
Q 3016 2238 3031 2350 
Q 3047 2463 3047 2528 
Q 3047 2791 2881 2937 
Q 2716 3084 2419 3084 
Q 1956 3084 1617 2771 
Q 1278 2459 1178 1941 
L 800 0 
L 225 0 
L 1172 4863 
L 1747 4863 
L 1375 2950 
Q 1594 3244 1934 3414 
Q 2275 3584 2650 3584 
Q 3113 3584 3367 3334 
Q 3622 3084 3622 2631 
Q 3622 2519 3608 2391 
Q 3594 2263 3566 2113 
z
" transform="scale(0.015625)"/>
       <path id="DejaVuSans-4e" d="M 628 4666 
L 1478 4666 
L 3547 763 
L 3547 4666 
L 4159 4666 
L 4159 0 
L 3309 0 
L 1241 3903 
L 1241 0 
L 628 0 
L 628 4666 
z
" transform="scale(0.015625)"/>
      </defs>
      <use xlink:href="#DejaVuSans-45" transform="translate(0 0.015625)"/>
      <use xlink:href="#DejaVuSans-6c" transform="translate(63.183594 0.015625)"/>
      <use xlink:href="#DejaVuSans-65" transform="translate(90.966797 0.015625)"/>
      <use xlink:href="#DejaVuSans-63" transform="translate(152.490234 0.015625)"/>
      <use xlink:href="#DejaVuSans-74" transform="translate(207.470703 0.015625)"/>
      <use xlink:href="#DejaVuSans-72" transform="translate(246.679688 0.015625)"/>
      <use xlink:href="#DejaVuSans-6f" transform="translate(287.792969 0.015625)"/>
      <use xlink:href="#DejaVuSans-6d" transform="translate(348.974609 0.015625)"/>
      <use xlink:href="#DejaVuSans-61" transform="translate(446.386719 0.015625)"/>
      <use xlink:href="#DejaVuSans-67" transform="translate(507.666016 0.015625)"/>
      <use xlink:href="#DejaVuSans-6e" transform="translate(571.142578 0.015625)"/>
      <use xlink:href="#DejaVuSans-65" transform="translate(634.521484 0.015625)"/>
      <use xlink:href="#DejaVuSans-74" transform="translate(696.044922 0.015625)"/>
      <use xlink:href="#DejaVuSans-69" transform="translate(735.253906 0.015625)"/>
      <use xlink:href="#DejaVuSans-63" transform="translate(763.037109 0.015625)"/>
      <use xlink:href="#DejaVuSans-20" transform="translate(818.017578 0.015625)"/>
      <use xlink:href="#DejaVuSans-54" transform="translate(849.804688 0.015625)"/>
      <use xlink:href="#DejaVuSans-6f" transform="translate(910.888672 0.015625)"/>
      <use xlink:href="#DejaVuSans-72" transform="translate(972.070312 0.015625)"/>
      <use xlink:href="#DejaVuSans-71" transform="translate(1013.183594 0.015625)"/>
      <use xlink:href="#DejaVuSans-75" transform="translate(1076.660156 0.015625)"/>
      <use xlink:href="#DejaVuSans-65" transform="translate(1140.039062 0.015625)"/>
      <use xlink:href="#DejaVuSans-20" transform="translate(1201.5625 0.015625)"/>
      <use xlink:href="#DejaVuSans-28" transform="translate(1233.349609 0.015625)"/>
      <use xlink:href="#DejaVuSans-Oblique-54" transform="translate(1272.363281 0.015625)"/>
      <use xlink:href="#DejaVuSans-Oblique-6d" transform="translate(1333.447266 -16.390625) scale(0.7)"/>
      <use xlink:href="#DejaVuSans-Oblique-65" transform="translate(1401.635742 -16.390625) scale(0.7)"/>
      <use xlink:href="#DejaVuSans-Oblique-63" transform="translate(1444.702148 -16.390625) scale(0.7)"/>
      <use xlink:href="#DejaVuSans-Oblique-68" transform="translate(1483.188477 -16.390625) scale(0.7)"/>
      <use xlink:href="#DejaVuSans-29" transform="translate(1530.288086 0.015625)"/>
      <use xlink:href="#DejaVuSans-20" transform="translate(1569.301758 0.015625)"/>
      <use xlink:href="#DejaVuSans-5b" transform="translate(1601.088867 0.015625)"/>
      <use xlink:href="#DejaVuSans-4e" transform="translate(1640.102539 0.015625)"/>
      <use xlink:href="#DejaVuSans-2e" transform="translate(1714.907227 0.015625)"/>
      <use xlink:href="#DejaVuSans-6d" transform="translate(1740.319336 0.015625)"/>
      <use xlink:href="#DejaVuSans-5d" transform="translate(1837.731445 0.015625)"/>
     </g>
    </g>
   </g>
   <g id="line2d_25">
    <path d="M 414.72 300.644314 
L 411.134443 233.852615 
L 409.341665 203.621411 
L 407.548887 176.252432 
L 405.756109 152.065845 
L 403.96333 131.194281 
L 402.170552 113.610513 
L 400.377774 99.164039 
L 398.584995 87.619318 
L 396.792217 78.690546 
L 394.999439 72.070148 
L 393.206661 67.450153 
L 391.413882 64.536813 
L 389.621104 63.059578 
L 387.828326 62.775704 
L 386.035547 63.471733 
L 384.242769 64.962905 
L 382.449991 67.091308 
L 380.657212 69.723348 
L 378.864434 72.746966 
L 375.278878 79.611732 
L 371.693321 87.117965 
L 359.143873 114.019984 
L 353.765538 124.758904 
L 350.179982 131.510053 
L 346.594425 137.919985 
L 343.008868 143.990027 
L 339.423312 149.728919 
L 335.837755 155.149876 
L 332.252199 160.268612 
L 328.666642 165.102032 
L 325.081085 169.667369 
L 321.495529 173.981628 
L 316.117194 180.017974 
L 310.738859 185.57823 
L 305.360524 190.709857 
L 299.982189 195.455591 
L 294.603854 199.85363 
L 289.22552 203.937976 
L 283.847185 207.738827 
L 278.46885 211.282989 
L 273.090515 214.59426 
L 267.71218 217.693788 
L 260.541067 221.529336 
L 253.369954 225.06073 
L 246.198841 228.321579 
L 239.027727 231.340912 
L 231.856614 234.143886 
L 222.892723 237.376423 
L 213.928831 240.341661 
L 204.96494 243.070802 
L 196.001048 245.590477 
L 185.244379 248.369527 
L 174.487709 250.913259 
L 163.731039 253.24997 
L 151.181591 255.74629 
L 138.632143 258.025471 
L 124.289917 260.398658 
L 109.94769 262.55669 
L 93.812686 264.761698 
L 75.884903 266.973045 
L 57.95712 268.968484 
L 57.95712 268.968484 
" clip-path="url(#p21efcb5517)" style="fill: none; stroke: #e78284; stroke-width: 5; stroke-linecap: square"/>
   </g>
   <g id="line2d_26">
    <path d="M 414.72 304.11063 
L 409.341665 253.14451 
L 405.756109 221.433212 
L 402.170552 192.296915 
L 398.584995 166.174701 
L 396.792217 154.326995 
L 394.999439 143.309241 
L 393.206661 133.124119 
L 391.413882 123.765155 
L 389.621104 115.217914 
L 387.828326 107.46123 
L 386.035547 100.468419 
L 384.242769 94.20843 
L 382.449991 88.64692 
L 380.657212 83.747226 
L 378.864434 79.471224 
L 377.071656 75.780074 
L 375.278878 72.634851 
L 373.486099 69.997071 
L 371.693321 67.829108 
L 369.900543 66.09453 
L 368.107764 64.758347 
L 366.314986 63.787191 
L 364.522208 63.149439 
L 362.72943 62.815283 
L 360.936651 62.756759 
L 359.143873 62.947747 
L 357.351095 63.363935 
L 355.558316 63.982775 
L 353.765538 64.783415 
L 351.97276 65.746627 
L 348.387203 68.091453 
L 344.801647 70.892621 
L 341.21609 74.045903 
L 337.630533 77.464725 
L 332.252199 82.938049 
L 325.081085 90.59983 
L 307.153303 109.918153 
L 299.982189 117.316069 
L 292.811076 124.413901 
L 285.639963 131.18189 
L 278.46885 137.60886 
L 271.297737 143.69567 
L 264.126624 149.450768 
L 256.95551 154.8872 
L 249.784397 160.020592 
L 242.613284 164.867814 
L 235.442171 169.446096 
L 228.271058 173.772463 
L 221.099945 177.863381 
L 213.928831 181.734544 
L 204.96494 186.286937 
L 196.001048 190.545904 
L 187.037157 194.536038 
L 178.073266 198.279732 
L 169.109374 201.797321 
L 160.145483 205.107231 
L 149.388813 208.82837 
L 138.632143 212.300261 
L 127.875473 215.545872 
L 115.326025 219.073534 
L 102.776577 222.349504 
L 90.227129 225.398814 
L 75.884903 228.634249 
L 61.542677 231.63085 
L 57.95712 232.345663 
L 57.95712 232.345663 
" clip-path="url(#p21efcb5517)" style="fill: none; stroke: #ef9f76; stroke-width: 5; stroke-linecap: square"/>
   </g>
   <g id="line2d_27">
    <path d="M 414.72 306.193863 
L 405.756109 271.791076 
L 398.584995 245.321996 
L 393.206661 226.340756 
L 387.828326 208.258379 
L 382.449991 191.18529 
L 378.864434 180.406721 
L 375.278878 170.133425 
L 371.693321 160.37909 
L 368.107764 151.152687 
L 364.522208 142.458759 
L 360.936651 134.297764 
L 357.351095 126.666445 
L 353.765538 119.558222 
L 350.179982 112.963601 
L 346.594425 106.87057 
L 343.008868 101.264993 
L 339.423312 96.130987 
L 335.837755 91.45127 
L 332.252199 87.207492 
L 328.666642 83.380529 
L 325.081085 79.950751 
L 321.495529 76.898262 
L 317.909972 74.203105 
L 314.324416 71.845441 
L 310.738859 69.805702 
L 307.153303 68.064716 
L 303.567746 66.603809 
L 299.982189 65.404892 
L 296.396633 64.450518 
L 292.811076 63.723936 
L 289.22552 63.20912 
L 285.639963 62.890787 
L 282.054406 62.754414 
L 278.46885 62.786231 
L 273.090515 63.121039 
L 267.71218 63.764315 
L 262.333845 64.678806 
L 256.95551 65.830671 
L 251.577175 67.189283 
L 244.406062 69.275016 
L 237.234949 71.621571 
L 228.271058 74.845937 
L 219.307166 78.317385 
L 208.550496 82.714131 
L 192.415492 89.591658 
L 144.010478 110.445662 
L 127.875473 117.099161 
L 111.740469 123.510258 
L 97.398242 128.98671 
L 83.056016 134.245982 
L 68.71379 139.286318 
L 57.95712 142.924095 
L 57.95712 142.924095 
" clip-path="url(#p21efcb5517)" style="fill: none; stroke: #e5c890; stroke-width: 5; stroke-linecap: square"/>
   </g>
   <g id="line2d_28">
    <path d="M 414.72 306.888805 
L 402.170552 282.671633 
L 391.413882 262.39272 
L 382.449991 245.96608 
L 373.486099 230.06658 
L 366.314986 217.780718 
L 359.143873 205.919214 
L 351.97276 194.5125 
L 344.801647 183.585851 
L 337.630533 173.159416 
L 332.252199 165.677152 
L 326.873864 158.489489 
L 321.495529 151.599582 
L 316.117194 145.009206 
L 310.738859 138.718835 
L 305.360524 132.727732 
L 299.982189 127.03404 
L 294.603854 121.634874 
L 289.22552 116.526424 
L 283.847185 111.704042 
L 278.46885 107.162343 
L 273.090515 102.895295 
L 267.71218 98.896306 
L 262.333845 95.158311 
L 256.95551 91.67385 
L 251.577175 88.435146 
L 246.198841 85.434173 
L 240.820506 82.662722 
L 235.442171 80.112461 
L 230.063836 77.774985 
L 224.685501 75.641869 
L 219.307166 73.704712 
L 213.928831 71.955169 
L 208.550496 70.384995 
L 201.379383 68.556427 
L 194.20827 67.01348 
L 187.037157 65.737879 
L 179.866044 64.711982 
L 172.694931 63.918824 
L 165.523817 63.342158 
L 158.352704 62.966479 
L 151.181591 62.777033 
L 142.2177 62.78087 
L 133.253808 63.028204 
L 124.289917 63.495153 
L 115.326025 64.159584 
L 104.569356 65.188892 
L 93.812686 66.440891 
L 81.263238 68.144216 
L 68.71379 70.069593 
L 57.95712 71.868829 
L 57.95712 71.868829 
" clip-path="url(#p21efcb5517)" style="fill: none; stroke: #a6d189; stroke-width: 5; stroke-linecap: square"/>
   </g>
   <g id="line2d_29">
    <path d="M 414.72 307.120509 
L 396.792217 284.040763 
L 382.449991 265.955897 
L 369.900543 250.515255 
L 359.143873 237.626372 
L 348.387203 225.10265 
L 339.423312 214.973075 
L 330.45942 205.143535 
L 321.495529 195.631196 
L 312.531637 186.450733 
L 303.567746 177.614345 
L 294.603854 169.131795 
L 285.639963 161.010486 
L 276.676072 153.25556 
L 269.504958 147.317495 
L 262.333845 141.616468 
L 255.162732 136.152303 
L 247.991619 130.924095 
L 240.820506 125.930265 
L 233.649393 121.168615 
L 226.478279 116.636376 
L 219.307166 112.330265 
L 212.136053 108.246535 
L 204.96494 104.381029 
L 197.793827 100.729227 
L 190.622714 97.286295 
L 183.4516 94.047132 
L 176.280487 91.006407 
L 167.316596 87.476145 
L 158.352704 84.23624 
L 149.388813 81.275365 
L 140.424921 78.582033 
L 131.46103 76.144695 
L 122.497138 73.951812 
L 113.533247 71.991921 
L 104.569356 70.253699 
L 95.605464 68.72601 
L 86.641573 67.397949 
L 75.884903 66.052826 
L 65.128233 64.962046 
L 57.95712 64.367662 
L 57.95712 64.367662 
" clip-path="url(#p21efcb5517)" style="fill: none; stroke: #81c8be; stroke-width: 5; stroke-linecap: square"/>
   </g>
   <g id="patch_3">
    <path d="M 57.6 307.584 
L 57.6 41.472 
" style="fill: none; stroke: #c6d0f5; stroke-width: 3; stroke-linejoin: miter; stroke-linecap: square"/>
   </g>
   <g id="patch_4">
    <path d="M 57.6 307.584 
L 414.72 307.584 
" style="fill: none; stroke: #c6d0f5; stroke-width: 3; stroke-linejoin: miter; stroke-linecap: square"/>
   </g>
   <g id="text_15">
    <!-- Wound Rotor Electromechanical Torque vs. Slip -->
    <g style="fill: #c6d0f5" transform="translate(95.1525 35.472) scale(0.12 -0.12)">
     <defs>
      <path id="DejaVuSans-57" d="M 213 4666 
L 850 4666 
L 1831 722 
L 2809 4666 
L 3519 4666 
L 4500 722 
L 5478 4666 
L 6119 4666 
L 4947 0 
L 4153 0 
L 3169 4050 
L 2175 0 
L 1381 0 
L 213 4666 
z
" transform="scale(0.015625)"/>
      <path id="DejaVuSans-64" d="M 2906 2969 
L 2906 4863 
L 3481 4863 
L 3481 0 
L 2906 0 
L 2906 525 
Q 2725 213 2448 61 
Q 2172 -91 1784 -91 
Q 1150 -91 751 415 
Q 353 922 353 1747 
Q 353 2572 751 3078 
Q 1150 3584 1784 3584 
Q 2172 3584 2448 3432 
Q 2725 3281 2906 2969 
z
M 947 1747 
Q 947 1113 1208 752 
Q 1469 391 1925 391 
Q 2381 391 2643 752 
Q 2906 1113 2906 1747 
Q 2906 2381 2643 2742 
Q 2381 3103 1925 3103 
Q 1469 3103 1208 2742 
Q 947 2381 947 1747 
z
" transform="scale(0.015625)"/>
      <path id="DejaVuSans-52" d="M 2841 2188 
Q 3044 2119 3236 1894 
Q 3428 1669 3622 1275 
L 4263 0 
L 3584 0 
L 2988 1197 
Q 2756 1666 2539 1819 
Q 2322 1972 1947 1972 
L 1259 1972 
L 1259 0 
L 628 0 
L 628 4666 
L 2053 4666 
Q 2853 4666 3247 4331 
Q 3641 3997 3641 3322 
Q 3641 2881 3436 2590 
Q 3231 2300 2841 2188 
z
M 1259 4147 
L 1259 2491 
L 2053 2491 
Q 2509 2491 2742 2702 
Q 2975 2913 2975 3322 
Q 2975 3731 2742 3939 
Q 2509 4147 2053 4147 
L 1259 4147 
z
" transform="scale(0.015625)"/>
      <path id="DejaVuSans-68" d="M 3513 2113 
L 3513 0 
L 2938 0 
L 2938 2094 
Q 2938 2591 2744 2837 
Q 2550 3084 2163 3084 
Q 1697 3084 1428 2787 
Q 1159 2491 1159 1978 
L 1159 0 
L 581 0 
L 581 4863 
L 1159 4863 
L 1159 2956 
Q 1366 3272 1645 3428 
Q 1925 3584 2291 3584 
Q 2894 3584 3203 3211 
Q 3513 2838 3513 2113 
z
" transform="scale(0.015625)"/>
      <path id="DejaVuSans-76" d="M 191 3500 
L 800 3500 
L 1894 563 
L 2988 3500 
L 3597 3500 
L 2284 0 
L 1503 0 
L 191 3500 
z
" transform="scale(0.015625)"/>
      <path id="DejaVuSans-73" d="M 2834 3397 
L 2834 2853 
Q 2591 2978 2328 3040 
Q 2066 3103 1784 3103 
Q 1356 3103 1142 2972 
Q 928 2841 928 2578 
Q 928 2378 1081 2264 
Q 1234 2150 1697 2047 
L 1894 2003 
Q 2506 1872 2764 1633 
Q 3022 1394 3022 966 
Q 3022 478 2636 193 
Q 2250 -91 1575 -91 
Q 1294 -91 989 -36 
Q 684 19 347 128 
L 347 722 
Q 666 556 975 473 
Q 1284 391 1588 391 
Q 1994 391 2212 530 
Q 2431 669 2431 922 
Q 2431 1156 2273 1281 
Q 2116 1406 1581 1522 
L 1381 1569 
Q 847 1681 609 1914 
Q 372 2147 372 2553 
Q 372 3047 722 3315 
Q 1072 3584 1716 3584 
Q 2034 3584 2315 3537 
Q 2597 3491 2834 3397 
z
" transform="scale(0.015625)"/>
     </defs>
     <use xlink:href="#DejaVuSans-57"/>
     <use xlink:href="#DejaVuSans-6f" x="93.001953"/>
     <use xlink:href="#DejaVuSans-75" x="154.183594"/>
     <use xlink:href="#DejaVuSans-6e" x="217.5625"/>
     <use xlink:href="#DejaVuSans-64" x="280.941406"/>
     <use xlink:href="#DejaVuSans-20" x="344.417969"/>
     <use xlink:href="#DejaVuSans-52" x="376.205078"/>
     <use xlink:href="#DejaVuSans-6f" x="441.1875"/>
     <use xlink:href="#DejaVuSans-74" x="502.369141"/>
     <use xlink:href="#DejaVuSans-6f" x="541.578125"/>
     <use xlink:href="#DejaVuSans-72" x="602.759766"/>
     <use xlink:href="#DejaVuSans-20" x="643.873047"/>
     <use xlink:href="#DejaVuSans-45" x="675.660156"/>
     <use xlink:href="#DejaVuSans-6c" x="738.84375"/>
     <use xlink:href="#DejaVuSans-65" x="766.626953"/>
     <use xlink:href="#DejaVuSans-63" x="828.150391"/>
     <use xlink:href="#DejaVuSans-74" x="883.130859"/>
     <use xlink:href="#DejaVuSans-72" x="922.339844"/>
     <use xlink:href="#DejaVuSans-6f" x="961.203125"/>
     <use xlink:href="#DejaVuSans-6d" x="1022.384766"/>
     <use xlink:href="#DejaVuSans-65" x="1119.796875"/>
     <use xlink:href="#DejaVuSans-63" x="1181.320312"/>
     <use xlink:href="#DejaVuSans-68" x="1236.300781"/>
     <use xlink:href="#DejaVuSans-61" x="1299.679688"/>
     <use xlink:href="#DejaVuSans-6e" x="1360.958984"/>
     <use xlink:href="#DejaVuSans-69" x="1424.337891"/>
     <use xlink:href="#DejaVuSans-63" x="1452.121094"/>
     <use xlink:href="#DejaVuSans-61" x="1507.101562"/>
     <use xlink:href="#DejaVuSans-6c" x="1568.380859"/>
     <use xlink:href="#DejaVuSans-20" x="1596.164062"/>
     <use xlink:href="#DejaVuSans-54" x="1627.951172"/>
     <use xlink:href="#DejaVuSans-6f" x="1672.035156"/>
     <use xlink:href="#DejaVuSans-72" x="1733.216797"/>
     <use xlink:href="#DejaVuSans-71" x="1772.580078"/>
     <use xlink:href="#DejaVuSans-75" x="1836.056641"/>
     <use xlink:href="#DejaVuSans-65" x="1899.435547"/>
     <use xlink:href="#DejaVuSans-20" x="1960.958984"/>
     <use xlink:href="#DejaVuSans-76" x="1992.746094"/>
     <use xlink:href="#DejaVuSans-73" x="2051.925781"/>
     <use xlink:href="#DejaVuSans-2e" x="2104.025391"/>
     <use xlink:href="#DejaVuSans-20" x="2135.8125"/>
     <use xlink:href="#DejaVuSans-53" x="2167.599609"/>
     <use xlink:href="#DejaVuSans-6c" x="2231.076172"/>
     <use xlink:href="#DejaVuSans-69" x="2258.859375"/>
     <use xlink:href="#DejaVuSans-70" x="2286.642578"/>
    </g>
   </g>
   <g id="legend_1">
    <g id="patch_5">
     <path d="M 64.6 302.584 
L 170.426562 302.584 
Q 172.426562 302.584 172.426562 300.584 
L 172.426562 226.80275 
Q 172.426562 224.80275 170.426562 224.80275 
L 64.6 224.80275 
Q 62.6 224.80275 62.6 226.80275 
L 62.6 300.584 
Q 62.6 302.584 64.6 302.584 
z
" style="opacity: 0.8; stroke: #cccccc; stroke-linejoin: miter"/>
    </g>
    <g id="line2d_30">
     <path d="M 66.6 232.901187 
L 76.6 232.901187 
L 86.6 232.901187 
" style="fill: none; stroke: #e78284; stroke-width: 5; stroke-linecap: square"/>
    </g>
    <g id="text_16">
     <!-- R_r = 0.1 Ohm -->
     <g transform="translate(94.6 236.401187) scale(0.1 -0.1)">
      <defs>
       <path id="DejaVuSans-5f" d="M 3263 -1063 
L 3263 -1509 
L -63 -1509 
L -63 -1063 
L 3263 -1063 
z
" transform="scale(0.015625)"/>
       <path id="DejaVuSans-3d" d="M 678 2906 
L 4684 2906 
L 4684 2381 
L 678 2381 
L 678 2906 
z
M 678 1631 
L 4684 1631 
L 4684 1100 
L 678 1100 
L 678 1631 
z
" transform="scale(0.015625)"/>
       <path id="DejaVuSans-4f" d="M 2522 4238 
Q 1834 4238 1429 3725 
Q 1025 3213 1025 2328 
Q 1025 1447 1429 934 
Q 1834 422 2522 422 
Q 3209 422 3611 934 
Q 4013 1447 4013 2328 
Q 4013 3213 3611 3725 
Q 3209 4238 2522 4238 
z
M 2522 4750 
Q 3503 4750 4090 4092 
Q 4678 3434 4678 2328 
Q 4678 1225 4090 567 
Q 3503 -91 2522 -91 
Q 1538 -91 948 565 
Q 359 1222 359 2328 
Q 359 3434 948 4092 
Q 1538 4750 2522 4750 
z
" transform="scale(0.015625)"/>
      </defs>
      <use xlink:href="#DejaVuSans-52"/>
      <use xlink:href="#DejaVuSans-5f" x="69.482422"/>
      <use xlink:href="#DejaVuSans-72" x="119.482422"/>
      <use xlink:href="#DejaVuSans-20" x="160.595703"/>
      <use xlink:href="#DejaVuSans-3d" x="192.382812"/>
      <use xlink:href="#DejaVuSans-20" x="276.171875"/>
      <use xlink:href="#DejaVuSans-30" x="307.958984"/>
      <use xlink:href="#DejaVuSans-2e" x="371.582031"/>
      <use xlink:href="#DejaVuSans-31" x="403.369141"/>
      <use xlink:href="#DejaVuSans-20" x="466.992188"/>
      <use xlink:href="#DejaVuSans-4f" x="498.779297"/>
      <use xlink:href="#DejaVuSans-68" x="577.490234"/>
      <use xlink:href="#DejaVuSans-6d" x="640.869141"/>
     </g>
    </g>
    <g id="line2d_31">
     <path d="M 66.6 247.857437 
L 76.6 247.857437 
L 86.6 247.857437 
" style="fill: none; stroke: #ef9f76; stroke-width: 5; stroke-linecap: square"/>
    </g>
    <g id="text_17">
     <!-- R_r = 0.2 Ohm -->
     <g transform="translate(94.6 251.357437) scale(0.1 -0.1)">
      <use xlink:href="#DejaVuSans-52"/>
      <use xlink:href="#DejaVuSans-5f" x="69.482422"/>
      <use xlink:href="#DejaVuSans-72" x="119.482422"/>
      <use xlink:href="#DejaVuSans-20" x="160.595703"/>
      <use xlink:href="#DejaVuSans-3d" x="192.382812"/>
      <use xlink:href="#DejaVuSans-20" x="276.171875"/>
      <use xlink:href="#DejaVuSans-30" x="307.958984"/>
      <use xlink:href="#DejaVuSans-2e" x="371.582031"/>
      <use xlink:href="#DejaVuSans-32" x="403.369141"/>
      <use xlink:href="#DejaVuSans-20" x="466.992188"/>
      <use xlink:href="#DejaVuSans-4f" x="498.779297"/>
      <use xlink:href="#DejaVuSans-68" x="577.490234"/>
      <use xlink:href="#DejaVuSans-6d" x="640.869141"/>
     </g>
    </g>
    <g id="line2d_32">
     <path d="M 66.6 262.813688 
L 76.6 262.813688 
L 86.6 262.813688 
" style="fill: none; stroke: #e5c890; stroke-width: 5; stroke-linecap: square"/>
    </g>
    <g id="text_18">
     <!-- R_r = 0.5 Ohm -->
     <g transform="translate(94.6 266.313688) scale(0.1 -0.1)">
      <defs>
       <path id="DejaVuSans-35" d="M 691 4666 
L 3169 4666 
L 3169 4134 
L 1269 4134 
L 1269 2991 
Q 1406 3038 1543 3061 
Q 1681 3084 1819 3084 
Q 2600 3084 3056 2656 
Q 3513 2228 3513 1497 
Q 3513 744 3044 326 
Q 2575 -91 1722 -91 
Q 1428 -91 1123 -41 
Q 819 9 494 109 
L 494 744 
Q 775 591 1075 516 
Q 1375 441 1709 441 
Q 2250 441 2565 725 
Q 2881 1009 2881 1497 
Q 2881 1984 2565 2268 
Q 2250 2553 1709 2553 
Q 1456 2553 1204 2497 
Q 953 2441 691 2322 
L 691 4666 
z
" transform="scale(0.015625)"/>
      </defs>
      <use xlink:href="#DejaVuSans-52"/>
      <use xlink:href="#DejaVuSans-5f" x="69.482422"/>
      <use xlink:href="#DejaVuSans-72" x="119.482422"/>
      <use xlink:href="#DejaVuSans-20" x="160.595703"/>
      <use xlink:href="#DejaVuSans-3d" x="192.382812"/>
      <use xlink:href="#DejaVuSans-20" x="276.171875"/>
      <use xlink:href="#DejaVuSans-30" x="307.958984"/>
      <use xlink:href="#DejaVuSans-2e" x="371.582031"/>
      <use xlink:href="#DejaVuSans-35" x="403.369141"/>
      <use xlink:href="#DejaVuSans-20" x="466.992188"/>
      <use xlink:href="#DejaVuSans-4f" x="498.779297"/>
      <use xlink:href="#DejaVuSans-68" x="577.490234"/>
      <use xlink:href="#DejaVuSans-6d" x="640.869141"/>
     </g>
    </g>
    <g id="line2d_33">
     <path d="M 66.6 277.769937 
L 76.6 277.769937 
L 86.6 277.769937 
" style="fill: none; stroke: #a6d189; stroke-width: 5; stroke-linecap: square"/>
    </g>
    <g id="text_19">
     <!-- R_r = 1.0 Ohm -->
     <g transform="translate(94.6 281.269937) scale(0.1 -0.1)">
      <use xlink:href="#DejaVuSans-52"/>
      <use xlink:href="#DejaVuSans-5f" x="69.482422"/>
      <use xlink:href="#DejaVuSans-72" x="119.482422"/>
      <use xlink:href="#DejaVuSans-20" x="160.595703"/>
      <use xlink:href="#DejaVuSans-3d" x="192.382812"/>
      <use xlink:href="#DejaVuSans-20" x="276.171875"/>
      <use xlink:href="#DejaVuSans-31" x="307.958984"/>
      <use xlink:href="#DejaVuSans-2e" x="371.582031"/>
      <use xlink:href="#DejaVuSans-30" x="403.369141"/>
      <use xlink:href="#DejaVuSans-20" x="466.992188"/>
      <use xlink:href="#DejaVuSans-4f" x="498.779297"/>
      <use xlink:href="#DejaVuSans-68" x="577.490234"/>
      <use xlink:href="#DejaVuSans-6d" x="640.869141"/>
     </g>
    </g>
    <g id="line2d_34">
     <path d="M 66.6 292.726187 
L 76.6 292.726187 
L 86.6 292.726187 
" style="fill: none; stroke: #81c8be; stroke-width: 5; stroke-linecap: square"/>
    </g>
    <g id="text_20">
     <!-- R_r = 1.5 Ohm -->
     <g transform="translate(94.6 296.226187) scale(0.1 -0.1)">
      <use xlink:href="#DejaVuSans-52"/>
      <use xlink:href="#DejaVuSans-5f" x="69.482422"/>
      <use xlink:href="#DejaVuSans-72" x="119.482422"/>
      <use xlink:href="#DejaVuSans-20" x="160.595703"/>
      <use xlink:href="#DejaVuSans-3d" x="192.382812"/>
      <use xlink:href="#DejaVuSans-20" x="276.171875"/>
      <use xlink:href="#DejaVuSans-31" x="307.958984"/>
      <use xlink:href="#DejaVuSans-2e" x="371.582031"/>
      <use xlink:href="#DejaVuSans-35" x="403.369141"/>
      <use xlink:href="#DejaVuSans-20" x="466.992188"/>
      <use xlink:href="#DejaVuSans-4f" x="498.779297"/>
      <use xlink:href="#DejaVuSans-68" x="577.490234"/>
      <use xlink:href="#DejaVuSans-6d" x="640.869141"/>
     </g>
    </g>
   </g>
  </g>
 </g>
 <defs>
  <clipPath id="p21efcb5517">
   <rect x="57.6" y="41.472" width="357.12" height="266.112"/>
  </clipPath>
 </defs>
</svg>
